<svg width="256" height="73" viewBox="0 0 256 73" fill="none" xmlns="http://www.w3.org/2000/svg">
<path d="M13.134 0.251899C7.91046 2.4399 2.16896 8.6134 0.355457 16.3684C-1.94154 26.1909 7.61546 30.3459 8.39996 28.9854C9.32246 27.3849 6.68746 26.8439 6.14496 21.7469C5.44396 15.1639 8.50446 7.8084 12.3565 4.5809C13.0715 3.9809 13.038 4.8159 13.038 6.3594C13.038 9.1199 12.8855 33.9019 12.8855 39.0739C12.8855 46.0719 12.5965 48.2819 12.077 50.4659C11.5515 52.6784 10.7055 54.1739 11.346 54.7499C12.062 55.3939 15.119 53.8614 16.8885 51.3919C19.0105 48.4299 19.7535 44.8719 19.887 41.0094C20.048 36.3524 20.041 28.9624 20.048 24.7474C20.054 20.8819 20.113 9.5624 19.98 2.7574C19.9475 1.0874 15.3185 -0.663601 13.134 0.251899Z" fill="#343433"/>
<path d="M198.605 33.0019C198.437 36.6404 197.631 39.4839 196.632 41.4899C194.697 45.3734 190.682 46.5789 188.977 40.9969C188.048 37.9539 188.004 32.8719 188.672 28.6254C189.352 24.2999 191.251 21.0329 194.394 21.3274C197.495 21.6189 198.947 25.6144 198.605 33.0024V33.0019ZM146.33 55.575C146.288 61.6199 145.337 66.9199 143.297 68.4599C140.403 70.6429 136.513 69.005 137.319 64.5939C138.031 60.6904 141.402 56.7039 146.339 51.833C146.339 51.833 146.349 52.944 146.33 55.575ZM145.54 32.9664C145.363 36.2804 144.504 39.6089 143.567 41.4899C141.632 45.3734 137.588 46.5874 135.912 40.9969C134.766 37.1769 135.04 32.2339 135.607 29.1189C136.343 25.0774 138.127 21.3279 141.329 21.3279C144.443 21.3279 145.979 24.7444 145.54 32.9664ZM115.258 32.9165C115.068 36.4254 114.383 39.3589 113.285 41.4899C111.297 45.3469 107.364 46.5699 105.63 40.9969C104.379 36.9784 104.805 31.4994 105.325 28.5394C106.097 24.1469 108.03 21.0329 111.047 21.3279C114.147 21.6309 115.653 25.6145 115.258 32.9165ZM254.034 37.0154C253.277 37.0154 252.931 37.7965 252.644 39.1105C251.653 43.6824 250.609 44.714 249.265 44.714C247.762 44.714 246.412 42.451 246.065 37.9199C245.792 34.3569 245.836 27.7979 246.185 21.2734C246.256 19.9329 245.886 18.6064 242.291 17.3004C240.744 16.7384 238.495 15.9109 237.375 18.6139C234.211 26.2509 232.973 32.3139 232.682 34.776C232.667 34.9035 232.51 34.93 232.483 34.632C232.297 32.6595 231.883 29.0744 231.831 21.5434C231.821 20.0739 231.51 18.8234 229.888 17.7994C228.835 17.1344 225.64 15.9594 224.489 17.3579C223.492 18.5009 222.337 21.5779 221.138 25.2259C220.163 28.1909 219.484 30.1959 219.484 30.1959C219.484 30.1959 219.497 22.1969 219.508 19.1624C219.513 18.0179 218.728 17.6364 218.491 17.5674C217.426 17.2584 215.326 16.7419 214.435 16.7419C213.335 16.7419 213.066 17.3559 213.066 18.2519C213.066 18.3694 212.893 28.7834 212.893 36.0654C212.893 36.382 212.893 36.7269 212.894 37.0939C212.286 40.4409 210.314 44.984 208.169 44.984C206.021 44.984 205.008 43.0849 205.008 34.4035C205.008 29.339 205.16 27.1364 205.234 23.4734C205.278 21.3634 205.362 19.7434 205.357 19.3759C205.341 18.2484 203.392 17.6799 202.484 17.4699C201.573 17.2584 200.781 17.1759 200.162 17.2114C199.287 17.2614 198.667 17.8349 198.667 18.6249C198.667 19.0489 198.672 19.8539 198.672 19.8539C197.545 18.0819 195.731 16.8489 194.525 16.4914C191.275 15.5264 187.884 16.3814 185.326 19.9609C183.293 22.8044 182.067 26.0259 181.585 30.6534C181.232 34.0369 181.347 37.4674 181.974 40.3689C181.217 43.6429 179.811 44.984 178.272 44.984C176.037 44.984 174.417 41.337 174.605 35.028C174.729 30.8785 175.559 27.9664 176.467 23.7534C176.854 21.9574 176.539 21.0174 175.751 20.1164C175.027 19.2899 173.486 18.8674 171.271 19.3864C169.693 19.7569 167.436 20.1554 165.372 20.4614C165.372 20.4614 165.497 19.9639 165.599 19.0879C166.136 14.4929 161.142 14.8654 159.549 16.3329C158.598 17.2094 157.951 18.2429 157.705 20.1009C157.315 23.0499 159.72 24.4409 159.72 24.4409C158.932 28.0529 156.997 32.771 155 36.1824C153.931 38.0099 153.113 39.3645 152.056 40.804C152.022 35.027 152.06 29.2499 152.169 23.4739C152.213 21.3639 152.297 19.7869 152.293 19.4189C152.281 18.5949 151.799 18.2829 150.798 17.8889C149.912 17.5399 148.865 17.2989 147.778 17.2139C146.407 17.1079 145.581 17.8344 145.603 18.6944C145.607 18.8569 145.607 19.8539 145.607 19.8539C144.48 18.0819 142.666 16.8489 141.46 16.4914C138.21 15.5264 134.819 16.3814 132.261 19.9609C130.228 22.8044 128.897 26.7954 128.52 30.6184C128.169 34.1809 128.233 37.2085 128.712 39.7594C128.196 42.3134 126.71 44.9845 125.03 44.9845C122.882 44.9845 121.66 43.0849 121.66 34.4035C121.66 29.339 121.812 27.1364 121.887 23.4734C121.931 21.3639 122.014 19.7434 122.01 19.3759C121.994 18.2484 120.044 17.6804 119.137 17.4699C118.188 17.2499 117.368 17.1699 116.739 17.2164C115.909 17.2779 115.325 18.0214 115.325 18.5759V19.8539C114.197 18.0819 112.384 16.8489 111.177 16.4914C107.927 15.5264 104.555 16.3954 101.978 19.9609C100.298 22.2854 98.9379 24.8624 98.2379 30.5674C98.0354 32.2159 97.9459 33.7604 97.9579 35.2029C97.2879 39.3009 94.3279 44.0239 91.9074 44.0239C90.4909 44.0239 89.1414 41.2759 89.1414 35.4204C89.1414 27.6204 89.6244 16.5145 89.7064 15.4444C89.7064 15.4444 92.7649 15.3924 93.3569 15.3854C94.8829 15.3684 96.2644 15.4049 98.2969 15.3004C99.3159 15.2489 100.298 11.5904 99.2459 11.1379C98.7689 10.9329 95.3994 10.7539 94.0634 10.7254C92.9404 10.7004 89.8134 10.4684 89.8134 10.4684C89.8134 10.4684 90.0939 3.09695 90.1594 2.31845C90.2144 1.66895 89.3744 1.33495 88.8934 1.13245C87.7224 0.637449 86.6749 0.399949 85.4334 0.143949C83.7174 -0.210051 82.9394 0.136449 82.7874 1.58395C82.5584 3.78145 82.4399 10.2179 82.4399 10.2179C81.1809 10.2179 76.8799 9.97195 75.6209 9.97195C74.4509 9.97195 73.1879 15.0039 74.8059 15.0659C76.6669 15.1379 79.9104 15.2009 82.0604 15.2649C82.0604 15.2649 81.9644 26.5539 81.9644 30.0399C81.9644 30.4099 81.9664 30.7674 81.9684 31.1139C80.7849 37.2814 76.6169 40.6134 76.6169 40.6134C77.5119 36.5329 75.6834 33.4684 72.3899 30.8744C71.1764 29.9189 68.7809 28.1094 66.1009 26.1264C66.1009 26.1264 67.6529 24.5964 69.0299 21.5184C70.0049 19.3374 70.0474 16.8429 67.6529 16.2924C63.6969 15.3824 60.4354 18.2879 59.4624 21.3899C58.7084 23.7929 59.1104 25.5754 60.5874 27.4274C60.6949 27.5629 60.8124 27.7014 60.9324 27.8404C60.0399 29.5614 58.8129 31.8789 57.7739 33.6759C54.8899 38.6659 52.7114 42.6119 51.0649 42.6119C49.7489 42.6119 49.7664 38.6049 49.7664 34.8535C49.7664 31.6195 50.0054 26.7569 50.1964 21.7234C50.2594 20.0584 49.4264 19.1099 48.0314 18.2509C47.1834 17.7289 45.3739 16.7029 44.3259 16.7029C42.7569 16.7029 38.2309 16.9164 33.9549 29.2864C33.4159 30.8454 32.3569 33.6865 32.3569 33.6865L32.4484 18.8109C32.4484 18.4619 32.2624 18.1249 31.8369 17.8944C31.1164 17.5029 29.1919 16.7029 27.4804 16.7029C26.6654 16.7029 26.2579 17.0819 26.2579 17.8379L26.1089 41.111C26.1089 42.8795 26.1549 44.9424 26.3299 45.8444C26.5039 46.7474 26.7864 47.4824 27.1354 47.9194C27.4849 48.3559 27.8884 48.6894 28.5539 48.8265C29.1734 48.9539 32.5654 49.3895 32.7419 48.0934C32.9529 46.5394 32.9614 44.8595 34.7424 38.5924C37.5154 28.8354 41.1304 24.0754 42.8304 22.3844C43.1279 22.0894 43.4669 22.0714 43.4504 22.5549C43.3784 24.6939 43.1229 30.0399 42.9514 34.5799C42.4909 46.7324 44.7014 48.985 47.8609 48.985C50.2779 48.985 53.6849 46.5835 57.3369 40.5045C59.3718 37.1167 61.3973 33.7234 63.4134 30.3244C64.5199 31.3489 65.7624 32.4515 67.0034 33.6295C69.8884 36.3675 70.8354 38.9695 70.2069 41.4375C69.7269 43.324 67.9164 45.2684 64.6949 43.3789C63.7559 42.8274 63.3549 42.4009 62.4109 41.7794C61.9039 41.4459 61.1294 41.346 60.6649 41.6959C59.4589 42.6049 58.7689 43.762 58.3749 45.194C57.9919 46.5875 59.3874 47.3239 60.8344 47.9684C62.0799 48.5229 64.7574 49.0255 66.4644 49.0825C73.1169 49.305 78.4464 45.8704 82.1564 37.0109C82.8204 44.6624 85.6464 48.992 90.5569 48.992C93.8399 48.992 97.1314 44.7485 98.5709 40.574C98.9839 42.2755 99.5959 43.7555 100.386 45.007C104.169 51.0019 111.509 49.7119 115.196 44.6209C116.336 43.048 116.51 42.4829 116.51 42.4829C117.048 47.2894 120.919 48.9689 123.135 48.9689C125.617 48.9689 128.18 47.7954 129.976 43.7514C130.187 44.1904 130.417 44.61 130.668 45.007C134.451 51.0019 141.792 49.7119 145.479 44.6209C145.653 44.382 145.804 44.166 145.935 43.971L146.043 47.1284L142.649 50.242C136.959 55.457 132.637 59.4119 132.319 64.0184C131.914 69.8919 136.675 72.0749 140.282 72.3609C144.105 72.6644 147.386 70.5504 149.399 67.5919C151.171 64.9874 152.331 59.3825 152.245 53.847C152.212 51.63 152.155 48.8115 152.112 45.79C154.109 43.4705 156.36 40.5384 158.432 37.1074C160.69 33.368 163.11 28.3459 164.349 24.4374C164.349 24.4374 166.451 24.4559 168.695 24.3089C169.413 24.2619 169.619 24.4089 169.486 24.9344C169.326 25.5704 166.651 35.8869 169.093 42.7594C170.763 47.4644 174.53 48.9775 176.763 48.9775C179.377 48.9775 181.878 47.0034 183.218 44.0724C183.38 44.3989 183.548 44.715 183.733 45.0075C187.516 51.0024 194.831 49.7039 198.544 44.6209C199.382 43.4739 199.857 42.4829 199.857 42.4829C200.654 47.4579 204.523 48.9944 206.739 48.9944C209.047 48.9944 211.238 48.048 213.015 43.8424C213.09 45.6945 213.206 47.2085 213.391 47.6855C213.503 47.978 214.159 48.344 214.636 48.521C216.748 49.304 218.901 48.9339 219.698 48.7729C220.25 48.6609 220.681 48.218 220.74 47.075C220.895 44.0725 220.8 39.028 221.71 35.2785C223.237 28.9869 224.663 26.5464 225.339 25.3384C225.717 24.6609 226.144 24.5494 226.159 25.2659C226.191 26.7159 226.263 30.9725 226.855 36.6925C227.29 40.8985 227.87 43.385 228.317 44.1725C229.591 46.4225 231.163 46.5289 232.444 46.5289C233.259 46.5289 234.963 46.3039 234.811 44.8719C234.736 44.1739 234.866 39.86 236.373 33.6614C237.356 29.6134 238.996 25.9564 239.588 24.6189C239.806 24.1259 239.908 24.5144 239.904 24.5904C239.779 27.3779 239.5 36.4959 240.635 41.4829C242.175 48.2384 246.628 48.9944 248.18 48.9944C251.493 48.9944 254.203 46.4744 255.115 39.8434C255.335 38.2474 255.01 37.0154 254.034 37.0154Z" fill="#343433"/>
</svg>
